<svg xmlns="http://www.w3.org/2000/svg" viewBox="0 0 48 48" fill="none" role="img" aria-label="Solar Earning">
  <defs>
    <linearGradient id="se-sun" x1="12" y1="8" x2="38" y2="40" gradientUnits="userSpaceOnUse">
      <stop stop-color="#5ed4ff"/>
      <stop offset="1" stop-color="#1facee"/>
    </linearGradient>
    <linearGradient id="se-panel" x1="10" y1="34" x2="38" y2="42" gradientUnits="userSpaceOnUse">
      <stop stop-color="#1590c4"/>
      <stop offset="1" stop-color="#0d6e96"/>
    </linearGradient>
  </defs>
  <rect width="48" height="48" rx="12" fill="#071018"/>
  <circle cx="24" cy="19" r="9" fill="url(#se-sun)"/>
  <g stroke="#5ed4ff" stroke-width="2" stroke-linecap="round">
    <path d="M24 4v3M24 31v3M4 19h3M41 19h3M9.5 9.5l2.1 2.1M36.4 36.4l2.1 2.1M38.5 9.5l-2.1 2.1M11.6 36.4l-2.1 2.1"/>
  </g>
  <path d="M10 36h28v5a2 2 0 0 1-2 2H12a2 2 0 0 1-2-2v-5z" fill="url(#se-panel)"/>
  <path d="M14 36v-4.5a2.5 2.5 0 0 1 2.5-2.5h3A2.5 2.5 0 0 1 22 31.5V36M26 36v-4.5a2.5 2.5 0 0 1 2.5-2.5h3A2.5 2.5 0 0 1 34 31.5V36" stroke="#9ee8ff" stroke-width="1.25" stroke-linecap="round"/>
</svg>
